					<svg width="32" height="32" viewBox="0 0 32 32" fill="none" xmlns="http://www.w3.org/2000/svg">
					<g clipPath="url(#clip0_2_554)">
					<path d="M20.8 15.9999C20.8 17.2729 20.2943 18.4938 19.3941 19.394C18.494 20.2942 17.2731 20.7999 16 20.7999C14.727 20.7999 13.5061 20.2942 12.6059 19.394C11.7057 18.4938 11.2 17.2729 11.2 15.9999C11.2 15.7263 11.2288 15.4591 11.2784 15.1999H9.60001V21.5951C9.60001 22.0399 9.96001 22.3999 10.4048 22.3999H21.5968C21.81 22.3995 22.0143 22.3145 22.1649 22.1636C22.3154 22.0127 22.4 21.8083 22.4 21.5951V15.1999H20.7216C20.7712 15.4591 20.8 15.7263 20.8 15.9999ZM16 19.1999C16.4204 19.1998 16.8365 19.1169 17.2248 18.9559C17.6131 18.795 17.9659 18.5591 18.2631 18.2618C18.5602 17.9645 18.7959 17.6116 18.9567 17.2232C19.1174 16.8349 19.2001 16.4186 19.2 15.9983C19.1999 15.578 19.117 15.1618 18.9561 14.7735C18.7951 14.3852 18.5593 14.0324 18.262 13.7352C17.9647 13.4381 17.6117 13.2024 17.2234 13.0416C16.835 12.8809 16.4187 12.7982 15.9984 12.7983C15.1495 12.7985 14.3355 13.1359 13.7353 13.7364C13.1352 14.3368 12.7982 15.151 12.7984 15.9999C12.7986 16.8488 13.1361 17.6629 13.7365 18.263C14.3369 18.8631 15.1511 19.2001 16 19.1999ZM19.84 12.6399H21.7584C21.8859 12.6399 22.0081 12.5894 22.0984 12.4994C22.1887 12.4094 22.2396 12.2873 22.24 12.1599V10.2415C22.24 10.1138 22.1893 9.99127 22.099 9.90095C22.0086 9.81063 21.8861 9.75989 21.7584 9.75989H19.84C19.7123 9.75989 19.5898 9.81063 19.4995 9.90095C19.4092 9.99127 19.3584 10.1138 19.3584 10.2415V12.1599C19.36 12.4239 19.576 12.6399 19.84 12.6399ZM16 0.639893C11.9263 0.639893 8.01941 2.25817 5.13885 5.13873C2.2583 8.01929 0.640015 11.9262 0.640015 15.9999C0.640015 20.0736 2.2583 23.9805 5.13885 26.8611C8.01941 29.7416 11.9263 31.3599 16 31.3599C18.0171 31.3599 20.0145 30.9626 21.878 30.1907C23.7416 29.4188 25.4349 28.2874 26.8612 26.8611C28.2875 25.4347 29.4189 23.7415 30.1908 21.8779C30.9627 20.0144 31.36 18.017 31.36 15.9999C31.36 13.9828 30.9627 11.9854 30.1908 10.1219C29.4189 8.25831 28.2875 6.56504 26.8612 5.13873C25.4349 3.71242 23.7416 2.58102 21.878 1.8091C20.0145 1.03719 18.0171 0.639893 16 0.639893ZM24 22.2223C24 23.1999 23.2 23.9999 22.2224 23.9999H9.77761C8.80001 23.9999 8.00001 23.1999 8.00001 22.2223V9.77749C8.00001 8.79989 8.80001 7.99989 9.77761 7.99989H22.2224C23.2 7.99989 24 8.79989 24 9.77749V22.2223Z" fill="#F8F8F8"/>
					</g>
					<defs>
					<clipPath id="clip0_2_554">
					<rect width="32" height="32" fill="white"/>
					</clipPath>
					</defs>
					</svg>
