					<svg width="32" height="32" viewBox="0 0 32 32" fill="none" xmlns="http://www.w3.org/2000/svg">
					<g clipPath="url(#clip0_2_552)">
					<path d="M18.5648 15.7327L14.9712 14.0559C14.6576 13.9103 14.4 14.0735 14.4 14.4207V17.5791C14.4 17.9263 14.6576 18.0895 14.9712 17.9439L18.5632 16.2671C18.8784 16.1199 18.8784 15.8799 18.5648 15.7327ZM16 0.639893C7.51682 0.639893 0.640015 7.51669 0.640015 15.9999C0.640015 24.4831 7.51682 31.3599 16 31.3599C24.4832 31.3599 31.36 24.4831 31.36 15.9999C31.36 7.51669 24.4832 0.639893 16 0.639893ZM16 22.2399C8.13762 22.2399 8.00001 21.5311 8.00001 15.9999C8.00001 10.4687 8.13762 9.75989 16 9.75989C23.8624 9.75989 24 10.4687 24 15.9999C24 21.5311 23.8624 22.2399 16 22.2399Z" fill="#F8F8F8"/>
					</g>
					<defs>
					<clipPath id="clip0_2_552">
					<rect width="32" height="32" fill="white"/>
					</clipPath>
					</defs>
					</svg>
